<svg width="117" height="44" viewBox="0 0 117 44" fill="#37BBED" xmlns="http://www.w3.org/2000/svg">
<path d="M57.9813 13.2L60.8641 4.51737H63.7167L66.5995 13.2H64.6696L62.1728 5.35044H62.3779L59.8871 13.2H57.9813ZM59.9836 10.8827L60.4058 9.36324H64.1691L64.5852 10.8827H59.9836ZM67.4019 13.2V6.78191H68.976L69.1207 7.60911H69.2172C69.4021 7.29231 69.6473 7.06154 69.953 6.91684C70.2585 6.76821 70.5941 6.69391 70.9602 6.69391C71.0606 6.69391 71.1571 6.69781 71.2497 6.70564C71.3419 6.71347 71.4246 6.72521 71.4969 6.74084V8.43044C71.3962 8.41088 71.2877 8.39914 71.1713 8.39524C71.0585 8.38741 70.9499 8.38351 70.8456 8.38351C70.6565 8.38351 70.4656 8.40697 70.2727 8.45391C70.0797 8.49694 69.9005 8.56537 69.7359 8.65924C69.571 8.74921 69.4322 8.86067 69.3198 8.99364V13.2H67.4019ZM74.6014 15.8987C74.2516 15.8987 73.8858 15.8772 73.5037 15.8342C73.122 15.7951 72.752 15.7286 72.394 15.6347V14.1739C72.764 14.2717 73.1238 14.344 73.4736 14.391C73.8234 14.4379 74.149 14.4614 74.4506 14.4614C75.0941 14.4614 75.5603 14.344 75.8498 14.1094C76.1435 13.8747 76.29 13.4836 76.29 12.936V12.5136H76.1996C76.0108 12.7405 75.7714 12.9184 75.4819 13.0475C75.1966 13.1766 74.8667 13.2411 74.4928 13.2411C74.0426 13.2411 73.6225 13.1316 73.2323 12.9126C72.8424 12.6896 72.5267 12.3494 72.2855 11.8918C72.0485 11.4303 71.9297 10.8397 71.9297 10.12C71.9297 9.01321 72.2393 8.16448 72.8584 7.57391C73.4778 6.97941 74.4165 6.68217 75.6749 6.68217C75.9565 6.68217 76.246 6.69587 76.5433 6.72324C76.8449 6.75061 77.1386 6.79168 77.4238 6.84644C77.7094 6.89728 77.9726 6.96181 78.2139 7.04004V12.5958C78.2139 13.7574 77.9166 14.5983 77.3213 15.1184C76.7263 15.6386 75.8196 15.8987 74.6014 15.8987ZM75.2225 11.7216C75.4155 11.7216 75.6067 11.6903 75.7955 11.6278C75.9845 11.5613 76.1495 11.4635 76.29 11.3344V8.17817C76.1857 8.15471 76.0651 8.13514 75.9282 8.11951C75.7955 8.10387 75.655 8.09604 75.506 8.09604C74.9753 8.09604 74.5694 8.24074 74.2877 8.53017C74.0064 8.81568 73.8656 9.29284 73.8656 9.96164C73.8656 10.4153 73.922 10.7712 74.0344 11.0294C74.1472 11.2836 74.304 11.4635 74.5049 11.5691C74.7099 11.6708 74.9493 11.7216 75.2225 11.7216ZM82.9753 13.3232C82.1469 13.3232 81.4655 13.2079 80.9308 12.9771C80.3959 12.7463 79.9978 12.3846 79.7367 11.8918C79.4792 11.399 79.3507 10.7634 79.3507 9.98511C79.3507 9.27721 79.4692 8.67684 79.7065 8.18404C79.9478 7.69124 80.2955 7.31774 80.7499 7.06351C81.2082 6.80928 81.7631 6.68217 82.4144 6.68217C83.0374 6.68217 83.5621 6.81124 83.9885 7.06937C84.4146 7.32361 84.7363 7.70101 84.9534 8.20164C85.1706 8.70227 85.2791 9.31631 85.2791 10.0438V10.5307H80.4483V9.45711H83.7955L83.4879 9.56857C83.4879 9.14617 83.4475 8.80981 83.3673 8.55951C83.2868 8.30921 83.1641 8.13124 82.9994 8.02564C82.8384 7.92004 82.6376 7.86724 82.3963 7.86724C82.1509 7.86724 81.944 7.92004 81.7751 8.02564C81.6102 8.13124 81.4835 8.30921 81.3952 8.55951C81.3108 8.80591 81.2685 9.14031 81.2685 9.56271V10.3136C81.2685 10.7087 81.3267 11.0235 81.4434 11.2582C81.5641 11.4889 81.767 11.6551 82.0526 11.7568C82.342 11.8585 82.7401 11.9094 83.2467 11.9094C83.5039 11.9094 83.7732 11.8918 84.0548 11.8566C84.3401 11.8175 84.6257 11.7666 84.9112 11.704V13.1062C84.5614 13.1844 84.2276 13.2391 83.9101 13.2704C83.5965 13.3056 83.2847 13.3232 82.9753 13.3232ZM86.3427 13.2V6.78191H87.9288L88.0555 7.43311H88.1459C88.3911 7.19061 88.6787 7.00484 89.0083 6.87577C89.3379 6.74671 89.6959 6.68217 90.0818 6.68217C90.5161 6.68217 90.902 6.76627 91.2398 6.93444C91.5814 7.09871 91.8489 7.36661 92.0419 7.73817C92.2349 8.10581 92.3314 8.59274 92.3314 9.19897V13.2H90.4075V9.31631C90.4075 8.92911 90.3252 8.66121 90.1602 8.51257C89.9953 8.36394 89.7682 8.28964 89.4788 8.28964C89.334 8.28964 89.1872 8.30921 89.0385 8.34831C88.8938 8.38351 88.7529 8.44021 88.6163 8.51844C88.4836 8.59667 88.3651 8.69444 88.2605 8.81177V13.2H86.3427ZM96.6534 13.3174C95.8574 13.3174 95.2443 13.1257 94.814 12.7424C94.3879 12.3552 94.1747 11.7431 94.1747 10.9062V6.78191L94.5245 4.51737H96.0926V10.6128C96.0926 11.0548 96.177 11.3599 96.3459 11.528C96.519 11.6962 96.7964 11.7803 97.1781 11.7803C97.2828 11.7803 97.3892 11.7744 97.4978 11.7627C97.6105 11.7471 97.7351 11.7275 97.8717 11.704V13.1824C97.6989 13.2176 97.5038 13.2489 97.2867 13.2763C97.0738 13.3037 96.8627 13.3174 96.6534 13.3174ZM93.1012 8.25444V6.78191H97.8295V8.25444H93.1012ZM98.8523 13.2V6.78191H100.776V13.2H98.8523ZM99.8112 5.84911C99.409 5.84911 99.1095 5.76307 98.9126 5.59097C98.7196 5.41888 98.6231 5.18031 98.6231 4.87524C98.6231 4.56234 98.7196 4.32181 98.9126 4.15364C99.1095 3.98154 99.409 3.89551 99.8112 3.89551C100.217 3.89551 100.517 3.98154 100.71 4.15364C100.903 4.32181 100.999 4.56234 100.999 4.87524C100.999 5.18031 100.903 5.41888 100.71 5.59097C100.517 5.76307 100.217 5.84911 99.8112 5.84911ZM102.209 13.2V6.78191H103.795L103.922 7.43311H104.012C104.258 7.19061 104.545 7.00484 104.875 6.87577C105.205 6.74671 105.562 6.68217 105.948 6.68217C106.383 6.68217 106.769 6.76627 107.106 6.93444C107.448 7.09871 107.715 7.36661 107.908 7.73817C108.101 8.10581 108.198 8.59274 108.198 9.19897V13.2H106.274V9.31631C106.274 8.92911 106.192 8.66121 106.027 8.51257C105.862 8.36394 105.635 8.28964 105.345 8.28964C105.2 8.28964 105.054 8.30921 104.905 8.34831C104.76 8.38351 104.62 8.44021 104.483 8.51844C104.35 8.59667 104.232 8.69444 104.127 8.81177V13.2H102.209ZM111.386 13.3174C110.711 13.3174 110.184 13.1472 109.806 12.807C109.432 12.4628 109.245 12.015 109.245 11.4635C109.245 10.8573 109.46 10.384 109.89 10.0438C110.325 9.70351 111.024 9.50208 111.989 9.43951L113.376 9.32804L113.581 10.3606L112.182 10.472C111.812 10.4994 111.545 10.5815 111.38 10.7184C111.219 10.8553 111.139 11.0431 111.139 11.2816C111.139 11.5163 111.213 11.6982 111.362 11.8272C111.511 11.9524 111.728 12.015 112.013 12.015C112.19 12.015 112.371 11.9856 112.556 11.927C112.741 11.8644 112.91 11.7588 113.063 11.6102V9.26351C113.063 8.97017 113.013 8.73941 112.912 8.57124C112.815 8.40307 112.657 8.28377 112.435 8.21337C112.218 8.13907 111.927 8.10191 111.561 8.10191C111.308 8.10191 111.02 8.12341 110.699 8.16644C110.377 8.20554 110.07 8.27008 109.776 8.36004V6.95204C110.098 6.86208 110.449 6.79561 110.831 6.75257C111.217 6.70564 111.575 6.68217 111.905 6.68217C112.604 6.68217 113.177 6.76627 113.624 6.93444C114.074 7.10261 114.406 7.38421 114.619 7.77924C114.832 8.17034 114.938 8.70421 114.938 9.38084V13.2H113.358L113.226 12.5606H113.135C112.938 12.8226 112.687 13.0143 112.381 13.1355C112.076 13.2567 111.744 13.3174 111.386 13.3174ZM58.6146 26.928V17.9286H60.2309L60.3454 18.615H60.4359C60.625 18.3764 60.8662 18.1867 61.1596 18.0459C61.4573 17.9012 61.801 17.8288 62.1909 17.8288C62.6773 17.8288 63.1257 17.9364 63.5358 18.1515C63.9459 18.3666 64.2737 18.7088 64.5189 19.1782C64.7682 19.6436 64.8928 20.2557 64.8928 21.0144C64.8928 21.7615 64.7562 22.3911 64.4827 22.9035C64.2134 23.4159 63.8111 23.805 63.2765 24.071C62.7458 24.333 62.0863 24.464 61.2983 24.464C61.1657 24.464 61.033 24.4582 60.9003 24.4464C60.7715 24.4386 60.6491 24.4288 60.5324 24.4171V26.928H58.6146ZM61.2983 23.0443C61.8532 23.0443 62.2693 22.8996 62.5467 22.6102C62.8242 22.3207 62.9629 21.8377 62.9629 21.1611C62.9629 20.6918 62.9065 20.3261 62.794 20.064C62.6815 19.802 62.5247 19.6182 62.3236 19.5126C62.1225 19.407 61.8894 19.3542 61.624 19.3542C61.4271 19.3542 61.2299 19.3894 61.033 19.4598C60.84 19.5263 60.6732 19.6358 60.5324 19.7883V22.968C60.641 22.9876 60.7637 23.0052 60.9003 23.0208C61.0369 23.0365 61.1696 23.0443 61.2983 23.0443ZM66.0353 24.3467V17.9286H67.6094L67.7541 18.7558H67.8506C68.0358 18.439 68.2809 18.2082 68.5864 18.0635C68.8922 17.9149 69.2278 17.8406 69.5936 17.8406C69.6943 17.8406 69.7908 17.8445 69.8831 17.8523C69.9756 17.8601 70.058 17.8719 70.1303 17.8875V19.5771C70.0299 19.5575 69.9214 19.5458 69.8047 19.5419C69.6922 19.5341 69.5836 19.5302 69.479 19.5302C69.2902 19.5302 69.099 19.5536 68.906 19.6006C68.7131 19.6436 68.5342 19.712 68.3693 19.8059C68.2047 19.8959 68.0659 20.0073 67.9532 20.1403V24.3467H66.0353ZM73.7778 24.4699C73.1183 24.4699 72.5475 24.3487 72.065 24.1062C71.5865 23.8598 71.2168 23.4921 70.9554 23.0032C70.6939 22.5104 70.5633 21.8944 70.5633 21.1552C70.5633 20.4082 70.69 19.7883 70.9433 19.2955C71.2005 18.8027 71.5684 18.4351 72.047 18.1926C72.5294 17.9501 73.1063 17.8288 73.7778 17.8288C74.4494 17.8288 75.0241 17.952 75.5027 18.1984C75.9851 18.4409 76.353 18.8086 76.6063 19.3014C76.8636 19.7903 76.9923 20.4043 76.9923 21.1435C76.9923 21.8866 76.8617 22.5046 76.6003 22.9974C76.3389 23.4902 75.9671 23.8598 75.4846 24.1062C75.006 24.3487 74.4373 24.4699 73.7778 24.4699ZM73.7778 23.0502C74.0471 23.0502 74.2763 22.9935 74.4654 22.88C74.6583 22.7666 74.8052 22.573 74.9056 22.2992C75.006 22.0215 75.0564 21.6422 75.0564 21.1611C75.0564 20.6683 75.006 20.2831 74.9056 20.0054C74.8052 19.7277 74.6583 19.5321 74.4654 19.4187C74.2763 19.3014 74.0471 19.2427 73.7778 19.2427C73.5085 19.2427 73.2773 19.2994 73.0843 19.4128C72.8952 19.5263 72.7505 19.7218 72.65 19.9995C72.5496 20.2733 72.4993 20.6527 72.4993 21.1376C72.4993 21.6304 72.5496 22.0157 72.65 22.2934C72.7505 22.5711 72.8952 22.7666 73.0843 22.88C73.2773 22.9935 73.5085 23.0502 73.7778 23.0502ZM80.597 27.0454C80.2472 27.0454 79.8814 27.0239 79.4994 26.9808C79.1173 26.9417 78.7476 26.8752 78.3897 26.7814V25.3206C78.7597 25.4183 79.1194 25.4907 79.4692 25.5376C79.819 25.5846 80.1447 25.608 80.4462 25.608C81.0894 25.608 81.5559 25.4907 81.8454 25.256C82.1388 25.0214 82.2857 24.6303 82.2857 24.0827V23.6603H82.1952C82.0061 23.8871 81.767 24.0651 81.4775 24.1942C81.192 24.3232 80.8624 24.3878 80.4884 24.3878C80.0382 24.3878 79.6179 24.2783 79.228 24.0592C78.8381 23.8363 78.5224 23.496 78.2811 23.0384C78.0438 22.5769 77.9253 21.9863 77.9253 21.2667C77.9253 20.1599 78.235 19.3111 78.8541 18.7206C79.4731 18.1261 80.4122 17.8288 81.6705 17.8288C81.9518 17.8288 82.2413 17.8425 82.539 17.8699C82.8405 17.8973 83.1339 17.9383 83.4195 17.9931C83.705 18.0439 83.9683 18.1085 84.2095 18.1867V23.7424C84.2095 24.904 83.9119 25.7449 83.317 26.2651C82.722 26.7853 81.8152 27.0454 80.597 27.0454ZM81.2182 22.8683C81.4112 22.8683 81.6021 22.837 81.7911 22.7744C81.9802 22.7079 82.1448 22.6102 82.2857 22.4811V19.3248C82.181 19.3014 82.0604 19.2818 81.9238 19.2662C81.7911 19.2505 81.6503 19.2427 81.5016 19.2427C80.9709 19.2427 80.5647 19.3874 80.2834 19.6768C80.0021 19.9623 79.8612 20.4395 79.8612 21.1083C79.8612 21.562 79.9176 21.9179 80.0301 22.176C80.1426 22.4303 80.2994 22.6102 80.5005 22.7158C80.7056 22.8175 80.9447 22.8683 81.2182 22.8683ZM85.6476 24.3467V17.9286H87.2217L87.3664 18.7558H87.4629C87.6481 18.439 87.8932 18.2082 88.1987 18.0635C88.5045 17.9149 88.8401 17.8406 89.2059 17.8406C89.3066 17.8406 89.4031 17.8445 89.4953 17.8523C89.5879 17.8601 89.6702 17.8719 89.7426 17.8875V19.5771C89.6422 19.5575 89.5336 19.5458 89.4169 19.5419C89.3045 19.5341 89.1959 19.5302 89.0913 19.5302C88.9025 19.5302 88.7113 19.5536 88.5183 19.6006C88.3253 19.6436 88.1465 19.712 87.9816 19.8059C87.8169 19.8959 87.6782 20.0073 87.5654 20.1403V24.3467H85.6476ZM92.1272 24.464C91.4518 24.464 90.9253 24.2939 90.5471 23.9536C90.1732 23.6095 89.9862 23.1616 89.9862 22.6102C89.9862 22.0039 90.2016 21.5307 90.6316 21.1904C91.0658 20.8502 91.7654 20.6487 92.7303 20.5862L94.1174 20.4747L94.3225 21.5072L92.9233 21.6187C92.5536 21.6461 92.2861 21.7282 92.1212 21.8651C91.9605 22.002 91.88 22.1897 91.88 22.4283C91.88 22.663 91.9544 22.8448 92.1031 22.9739C92.2521 23.0991 92.4692 23.1616 92.7545 23.1616C92.9315 23.1616 93.1124 23.1323 93.2972 23.0736C93.4824 23.0111 93.6512 22.9055 93.8038 22.7568V20.4102C93.8038 20.1168 93.7538 19.8861 93.6531 19.7179C93.5566 19.5497 93.3979 19.4304 93.1766 19.36C92.9595 19.2857 92.6682 19.2486 92.3021 19.2486C92.0488 19.2486 91.7615 19.2701 91.4397 19.3131C91.1183 19.3522 90.8107 19.4167 90.517 19.5067V18.0987C90.8387 18.0087 91.1906 17.9423 91.5724 17.8992C91.9584 17.8523 92.3163 17.8288 92.6459 17.8288C93.3455 17.8288 93.9184 17.9129 94.3647 18.0811C94.8152 18.2493 95.1469 18.5309 95.3598 18.9259C95.573 19.317 95.6794 19.8509 95.6794 20.5275V24.3467H94.0993L93.9667 23.7072H93.8762C93.6793 23.9693 93.4281 24.1609 93.1223 24.2822C92.8169 24.4034 92.4852 24.464 92.1272 24.464ZM97.0617 24.3467V17.9286H98.6479L98.7745 18.5856H98.865C99.0981 18.3353 99.3695 18.1476 99.6792 18.0224C99.9928 17.8934 100.339 17.8288 100.716 17.8288C101.106 17.8288 101.456 17.911 101.766 18.0752C102.079 18.2356 102.325 18.4976 102.502 18.8614C102.683 19.2212 102.773 19.6983 102.773 20.2928V24.3467H100.891V20.4512C100.891 20.0679 100.817 19.8039 100.668 19.6592C100.523 19.5106 100.322 19.4363 100.065 19.4363C99.9364 19.4363 99.8037 19.4559 99.6671 19.495C99.5344 19.5341 99.4078 19.5927 99.2872 19.671C99.1705 19.7492 99.0679 19.8489 98.9796 19.9702V24.3467H97.0617ZM104.643 24.3467V20.4512C104.643 20.0679 104.562 19.8039 104.401 19.6592C104.241 19.5106 104.033 19.4363 103.78 19.4363C103.639 19.4363 103.499 19.4578 103.358 19.5008C103.221 19.5399 103.091 19.6025 102.966 19.6886C102.841 19.7746 102.733 19.8861 102.64 20.023L102.26 18.8086C102.554 18.4605 102.886 18.2102 103.256 18.0576C103.625 17.9051 103.997 17.8288 104.371 17.8288C104.793 17.8288 105.169 17.911 105.499 18.0752C105.829 18.2395 106.088 18.5074 106.277 18.879C106.466 19.2505 106.56 19.7414 106.56 20.3515V24.3467H104.643ZM109.749 24.464C109.074 24.464 108.547 24.2939 108.169 23.9536C107.795 23.6095 107.608 23.1616 107.608 22.6102C107.608 22.0039 107.823 21.5307 108.253 21.1904C108.688 20.8502 109.387 20.6487 110.352 20.5862L111.739 20.4747L111.944 21.5072L110.545 21.6187C110.175 21.6461 109.908 21.7282 109.743 21.8651C109.582 22.002 109.502 22.1897 109.502 22.4283C109.502 22.663 109.576 22.8448 109.725 22.9739C109.874 23.0991 110.091 23.1616 110.376 23.1616C110.553 23.1616 110.734 23.1323 110.919 23.0736C111.104 23.0111 111.273 22.9055 111.426 22.7568V20.4102C111.426 20.1168 111.375 19.8861 111.275 19.7179C111.178 19.5497 111.019 19.4304 110.798 19.36C110.581 19.2857 110.29 19.2486 109.924 19.2486C109.671 19.2486 109.383 19.2701 109.061 19.3131C108.74 19.3522 108.432 19.4167 108.139 19.5067V18.0987C108.46 18.0087 108.812 17.9423 109.194 17.8992C109.58 17.8523 109.938 17.8288 110.268 17.8288C110.967 17.8288 111.54 17.9129 111.986 18.0811C112.437 18.2493 112.768 18.5309 112.982 18.9259C113.194 19.317 113.301 19.8509 113.301 20.5275V24.3467H111.721L111.588 23.7072H111.498C111.301 23.9693 111.05 24.1609 110.744 24.2822C110.438 24.4034 110.107 24.464 109.749 24.464Z" fill="black"/>
<path d="M58.1647 36.8662V35.6201L61.899 28.5942H64.157L60.4661 35.6272L60.2055 35.1062H66.8709V36.8662H58.1647ZM63.3754 39.0134V35.1062L63.6142 32.1142H65.4886V39.0134H63.3754ZM69.125 39.1331C68.6715 39.1331 68.3072 39.0111 68.0322 38.767C67.762 38.523 67.6269 38.1921 67.6269 37.7744C67.6269 37.352 67.7596 37.0187 68.0249 36.7747C68.2951 36.5306 68.6618 36.4086 69.125 36.4086C69.5882 36.4086 69.9524 36.533 70.2178 36.7817C70.488 37.0305 70.6231 37.3614 70.6231 37.7744C70.6231 38.1827 70.4856 38.5112 70.2105 38.76C69.9404 39.0087 69.5785 39.1331 69.125 39.1331ZM75.5166 39.1472C74.6529 39.1472 73.9099 38.9618 73.2875 38.591C72.6651 38.2202 72.1875 37.6406 71.8546 36.8521C71.5217 36.0637 71.3552 35.0475 71.3552 33.8038C71.3552 32.5601 71.5217 31.544 71.8546 30.7555C72.1875 29.967 72.6627 29.3874 73.2803 29.0166C73.9027 28.6458 74.6481 28.4604 75.5166 28.4604C76.3802 28.4604 77.1232 28.6458 77.7456 29.0166C78.368 29.3874 78.8456 29.967 79.1785 30.7555C79.5114 31.544 79.6779 32.5601 79.6779 33.8038C79.6779 35.0475 79.509 36.0637 79.1713 36.8521C78.8384 37.6406 78.3607 38.2202 77.7384 38.591C77.116 38.9618 76.3754 39.1472 75.5166 39.1472ZM75.5166 37.2745C75.9074 37.2745 76.2403 37.1713 76.5153 36.9648C76.7903 36.7536 77.0002 36.3969 77.1449 35.8947C77.2945 35.3925 77.3693 34.6979 77.3693 33.8108C77.3693 32.9238 77.2945 32.2268 77.1449 31.72C77.0002 31.2131 76.7903 30.8564 76.5153 30.6499C76.2403 30.4387 75.9074 30.3331 75.5166 30.3331C75.1306 30.3331 74.7977 30.4387 74.5178 30.6499C74.238 30.8564 74.0257 31.2107 73.881 31.7129C73.7362 32.2151 73.6639 32.9097 73.6639 33.7968C73.6639 34.6838 73.7362 35.3808 73.881 35.8876C74.0257 36.3945 74.2356 36.7536 74.5106 36.9648C74.7904 37.1713 75.1258 37.2745 75.5166 37.2745Z" fill="black"/>
<path fill-rule="evenodd" clip-rule="evenodd" d="M6.50782 3.81348H51.3891C52.3187 3.81348 53.0722 4.54853 53.0722 5.45527V38.8384C53.0722 39.7451 52.3187 40.4801 51.3891 40.4801H6.50782C5.57829 40.4801 4.82477 39.7451 4.82477 38.8384V5.45527C4.82477 4.54853 5.57829 3.81348 6.50782 3.81348ZM24.1305 30.1633H37.0339C38.1184 30.1633 38.9975 31.0209 38.9975 32.0788C38.9975 33.1366 38.1184 33.9942 37.0339 33.9942H24.1305C23.0461 33.9942 22.167 33.1366 22.167 32.0788C22.167 31.0209 23.0461 30.1633 24.1305 30.1633ZM19.1627 20.4659L14.1552 26.1864C13.4509 26.9908 13.5486 28.1999 14.3733 28.8868C15.198 29.5738 16.4374 29.4785 17.1416 28.674L23.0579 21.9155C23.0782 21.8989 23.0982 21.8819 23.118 21.8644C23.9206 21.153 23.9802 19.9416 23.251 19.1587L16.9058 12.3456C16.1766 11.5626 14.9348 11.5046 14.1321 12.2159C13.3295 12.9272 13.2699 14.1386 13.9991 14.9216L19.1627 20.4659Z" fill="black"/>
</svg>
